{
    "programs": [
        {
            "program_id": 4911,
            "program_num": 4911,
            "nb_streams": 8,
            "pmt_pid": 107,
            "pcr_pid": 1920,
            "streams": [
                {
                    "index": 1,
                    "codec_name": "h264",
                    "codec_long_name": "H.264 / AVC / MPEG-4 AVC / MPEG-4 part 10",
                    "profile": "High",
                    "codec_type": "video",
                    "codec_tag_string": "[27][0][0][0]",
                    "codec_tag": "0x001b",
                    "mime_codec_string": "avc1.640028",
                    "width": 1280,
                    "height": 720,
                    "coded_width": 1280,
                    "coded_height": 720,
                    "has_b_frames": 2,
                    "sample_aspect_ratio": "1:1",
                    "display_aspect_ratio": "16:9",
                    "pix_fmt": "yuv420p",
                    "level": 40,
                    "chroma_location": "left",
                    "field_order": "progressive",
                    "is_avc": "false",
                    "nal_length_size": "0",
                    "ts_id": "1007",
                    "ts_packetsize": "188",
                    "id": "0x780",
                    "r_frame_rate": "50/1",
                    "avg_frame_rate": "50/1",
                    "time_base": "1/90000",
                    "start_pts": 3255206392,
                    "start_time": "36168.959911",
                    "duration_ts": 10596600,
                    "duration": "117.740000",
                    "bits_per_raw_sample": "8",
                    "extradata_size": 142,
                    "disposition": {
                        "default": 0,
                        "dub": 0,
                        "original": 0,
                        "comment": 0,
                        "lyrics": 0,
                        "karaoke": 0,
                        "forced": 0,
                        "hearing_impaired": 0,
                        "visual_impaired": 0,
                        "clean_effects": 0,
                        "attached_pic": 0,
                        "timed_thumbnails": 0,
                        "non_diegetic": 0,
                        "captions": 0,
                        "descriptions": 0,
                        "metadata": 0,
                        "dependent": 0,
                        "still_image": 0,
                        "multilayer": 0
                    }
                },
                {
                    "index": 2,
                    "codec_name": "ac3",
                    "codec_long_name": "ATSC A/52A (AC-3)",
                    "codec_type": "audio",
                    "codec_tag_string": "[6][0][0][0]",
                    "codec_tag": "0x0006",
                    "mime_codec_string": "ac-3",
                    "sample_fmt": "fltp",
                    "sample_rate": "48000",
                    "channels": 6,
                    "channel_layout": "5.1(side)",
                    "bits_per_sample": 0,
                    "initial_padding": 0,
                    "dmix_mode": "0",
                    "ltrt_cmixlev": "0.000000",
                    "ltrt_surmixlev": "0.000000",
                    "loro_cmixlev": "0.000000",
                    "loro_surmixlev": "0.000000",
                    "ts_id": "1007",
                    "ts_packetsize": "188",
                    "id": "0x781",
                    "r_frame_rate": "0/0",
                    "avg_frame_rate": "0/0",
                    "time_base": "1/90000",
                    "start_pts": 3255101901,
                    "start_time": "36167.798900",
                    "duration_ts": 10578240,
                    "duration": "117.536000",
                    "bit_rate": "448000",
                    "disposition": {
                        "default": 0,
                        "dub": 0,
                        "original": 0,
                        "comment": 0,
                        "lyrics": 0,
                        "karaoke": 0,
                        "forced": 0,
                        "hearing_impaired": 0,
                        "visual_impaired": 0,
                        "clean_effects": 1,
                        "attached_pic": 0,
                        "timed_thumbnails": 0,
                        "non_diegetic": 0,
                        "captions": 0,
                        "descriptions": 0,
                        "metadata": 0,
                        "dependent": 0,
                        "still_image": 0,
                        "multilayer": 0
                    },
                    "tags": {
                        "language": "deu"
                    }
                },
                {
                    "index": 3,
                    "codec_name": "mp2",
                    "codec_long_name": "MP2 (MPEG audio layer 2)",
                    "codec_type": "audio",
                    "codec_tag_string": "[3][0][0][0]",
                    "codec_tag": "0x0003",
                    "mime_codec_string": "mp4a.40.33",
                    "sample_fmt": "fltp",
                    "sample_rate": "48000",
                    "channels": 2,
                    "channel_layout": "stereo",
                    "bits_per_sample": 0,
                    "initial_padding": 0,
                    "ts_id": "1007",
                    "ts_packetsize": "188",
                    "id": "0x782",
                    "r_frame_rate": "0/0",
                    "avg_frame_rate": "0/0",
                    "time_base": "1/90000",
                    "start_pts": 3255095538,
                    "start_time": "36167.728200",
                    "duration_ts": 10594800,
                    "duration": "117.720000",
                    "bit_rate": "160000",
                    "disposition": {
                        "default": 0,
                        "dub": 0,
                        "original": 0,
                        "comment": 0,
                        "lyrics": 0,
                        "karaoke": 0,
                        "forced": 0,
                        "hearing_impaired": 0,
                        "visual_impaired": 0,
                        "clean_effects": 1,
                        "attached_pic": 0,
                        "timed_thumbnails": 0,
                        "non_diegetic": 0,
                        "captions": 0,
                        "descriptions": 0,
                        "metadata": 0,
                        "dependent": 0,
                        "still_image": 0,
                        "multilayer": 0
                    },
                    "tags": {
                        "language": "mis"
                    }
                },
                {
                    "index": 4,
                    "codec_name": "dvb_teletext",
                    "codec_long_name": "DVB teletext",
                    "codec_type": "subtitle",
                    "codec_tag_string": "[6][0][0][0]",
                    "codec_tag": "0x0006",
                    "ts_id": "1007",
                    "ts_packetsize": "188",
                    "id": "0x785",
                    "r_frame_rate": "0/0",
                    "avg_frame_rate": "0/0",
                    "time_base": "1/90000",
                    "start_pts": 3255091192,
                    "start_time": "36167.679911",
                    "duration_ts": 10594800,
                    "duration": "117.720000",
                    "extradata_size": 4,
                    "disposition": {
                        "default": 0,
                        "dub": 0,
                        "original": 0,
                        "comment": 0,
                        "lyrics": 0,
                        "karaoke": 0,
                        "forced": 0,
                        "hearing_impaired": 0,
                        "visual_impaired": 0,
                        "clean_effects": 0,
                        "attached_pic": 0,
                        "timed_thumbnails": 0,
                        "non_diegetic": 0,
                        "captions": 0,
                        "descriptions": 0,
                        "metadata": 0,
                        "dependent": 0,
                        "still_image": 0,
                        "multilayer": 0
                    },
                    "tags": {
                        "language": "deu,deu"
                    }
                },
                {
                    "index": 5,
                    "codec_type": "data",
                    "codec_tag_string": "[0][0][0][0]",
                    "codec_tag": "0x0000",
                    "ts_id": "1007",
                    "ts_packetsize": "188",
                    "id": "0x1c8e",
                    "r_frame_rate": "0/0",
                    "avg_frame_rate": "0/0",
                    "time_base": "1/90000",
                    "start_pts": 3255091192,
                    "start_time": "36167.679911",
                    "duration_ts": 10711800,
                    "duration": "119.020000",
                    "disposition": {
                        "default": 0,
                        "dub": 0,
                        "original": 0,
                        "comment": 0,
                        "lyrics": 0,
                        "karaoke": 0,
                        "forced": 0,
                        "hearing_impaired": 0,
                        "visual_impaired": 0,
                        "clean_effects": 0,
                        "attached_pic": 0,
                        "timed_thumbnails": 0,
                        "non_diegetic": 0,
                        "captions": 0,
                        "descriptions": 0,
                        "metadata": 0,
                        "dependent": 0,
                        "still_image": 0,
                        "multilayer": 0
                    }
                },
                {
                    "index": 6,
                    "codec_tag_string": "[11][0][0][0]",
                    "codec_tag": "0x000b",
                    "ts_id": "1007",
                    "ts_packetsize": "188",
                    "id": "0x1c8f",
                    "r_frame_rate": "0/0",
                    "avg_frame_rate": "0/0",
                    "time_base": "1/90000",
                    "start_pts": 3255091192,
                    "start_time": "36167.679911",
                    "duration_ts": 10711800,
                    "duration": "119.020000",
                    "disposition": {
                        "default": 0,
                        "dub": 0,
                        "original": 0,
                        "comment": 0,
                        "lyrics": 0,
                        "karaoke": 0,
                        "forced": 0,
                        "hearing_impaired": 0,
                        "visual_impaired": 0,
                        "clean_effects": 0,
                        "attached_pic": 0,
                        "timed_thumbnails": 0,
                        "non_diegetic": 0,
                        "captions": 0,
                        "descriptions": 0,
                        "metadata": 0,
                        "dependent": 0,
                        "still_image": 0,
                        "multilayer": 0
                    }
                },
                {
                    "index": 7,
                    "codec_tag_string": "[12][0][0][0]",
                    "codec_tag": "0x000c",
                    "ts_id": "1007",
                    "ts_packetsize": "188",
                    "id": "0x1c90",
                    "r_frame_rate": "0/0",
                    "avg_frame_rate": "0/0",
                    "time_base": "1/90000",
                    "start_pts": 3255091192,
                    "start_time": "36167.679911",
                    "duration_ts": 10711800,
                    "duration": "119.020000",
                    "disposition": {
                        "default": 0,
                        "dub": 0,
                        "original": 0,
                        "comment": 0,
                        "lyrics": 0,
                        "karaoke": 0,
                        "forced": 0,
                        "hearing_impaired": 0,
                        "visual_impaired": 0,
                        "clean_effects": 0,
                        "attached_pic": 0,
                        "timed_thumbnails": 0,
                        "non_diegetic": 0,
                        "captions": 0,
                        "descriptions": 0,
                        "metadata": 0,
                        "dependent": 0,
                        "still_image": 0,
                        "multilayer": 0
                    }
                },
                {
                    "index": 8,
                    "codec_tag_string": "[5][0][0][0]",
                    "codec_tag": "0x0005",
                    "ts_id": "1007",
                    "ts_packetsize": "188",
                    "id": "0x1c8e",
                    "r_frame_rate": "0/0",
                    "avg_frame_rate": "0/0",
                    "time_base": "1/90000",
                    "start_pts": 3255091192,
                    "start_time": "36167.679911",
                    "duration_ts": 10711800,
                    "duration": "119.020000",
                    "disposition": {
                        "default": 0,
                        "dub": 0,
                        "original": 0,
                        "comment": 0,
                        "lyrics": 0,
                        "karaoke": 0,
                        "forced": 0,
                        "hearing_impaired": 0,
                        "visual_impaired": 0,
                        "clean_effects": 0,
                        "attached_pic": 0,
                        "timed_thumbnails": 0,
                        "non_diegetic": 0,
                        "captions": 0,
                        "descriptions": 0,
                        "metadata": 0,
                        "dependent": 0,
                        "still_image": 0,
                        "multilayer": 0
                    }
                }
            ]
        },
        {
            "program_id": 4912,
            "program_num": 4912,
            "nb_streams": 0,
            "pmt_pid": 108,
            "pcr_pid": 0,
            "streams": [

            ]
        },
        {
            "program_id": 4913,
            "program_num": 4913,
            "nb_streams": 0,
            "pmt_pid": 109,
            "pcr_pid": 0,
            "streams": [

            ]
        },
        {
            "program_id": 4914,
            "program_num": 4914,
            "nb_streams": 0,
            "pmt_pid": 110,
            "pcr_pid": 0,
            "streams": [

            ]
        },
        {
            "program_id": 4916,
            "program_num": 4916,
            "nb_streams": 0,
            "pmt_pid": 116,
            "pcr_pid": 0,
            "streams": [

            ]
        },
        {
            "program_id": 4917,
            "program_num": 4917,
            "nb_streams": 0,
            "pmt_pid": 117,
            "pcr_pid": 0,
            "streams": [

            ]
        },
        {
            "program_id": 4920,
            "program_num": 4920,
            "nb_streams": 0,
            "pmt_pid": 120,
            "pcr_pid": 0,
            "streams": [

            ]
        },
        {
            "program_id": 4930,
            "program_num": 4930,
            "nb_streams": 0,
            "pmt_pid": 130,
            "pcr_pid": 0,
            "streams": [

            ]
        },
        {
            "program_id": 4933,
            "program_num": 4933,
            "nb_streams": 0,
            "pmt_pid": 133,
            "pcr_pid": 0,
            "streams": [

            ]
        },
        {
            "program_id": 4940,
            "program_num": 4940,
            "nb_streams": 0,
            "pmt_pid": 140,
            "pcr_pid": 0,
            "streams": [

            ]
        },
        {
            "program_id": 4941,
            "program_num": 4941,
            "nb_streams": 0,
            "pmt_pid": 141,
            "pcr_pid": 0,
            "streams": [

            ]
        },
        {
            "program_id": 4942,
            "program_num": 4942,
            "nb_streams": 0,
            "pmt_pid": 142,
            "pcr_pid": 0,
            "streams": [

            ]
        },
        {
            "program_id": 4943,
            "program_num": 4943,
            "nb_streams": 0,
            "pmt_pid": 143,
            "pcr_pid": 0,
            "streams": [

            ]
        },
        {
            "program_id": 4944,
            "program_num": 4944,
            "nb_streams": 0,
            "pmt_pid": 144,
            "pcr_pid": 0,
            "streams": [

            ]
        },
        {
            "program_id": 4945,
            "program_num": 4945,
            "nb_streams": 0,
            "pmt_pid": 145,
            "pcr_pid": 0,
            "streams": [

            ]
        },
        {
            "program_id": 4946,
            "program_num": 4946,
            "nb_streams": 0,
            "pmt_pid": 146,
            "pcr_pid": 0,
            "streams": [

            ]
        },
        {
            "program_id": 4947,
            "program_num": 4947,
            "nb_streams": 0,
            "pmt_pid": 147,
            "pcr_pid": 0,
            "streams": [

            ]
        },
        {
            "program_id": 4948,
            "program_num": 4948,
            "nb_streams": 0,
            "pmt_pid": 148,
            "pcr_pid": 0,
            "streams": [

            ]
        },
        {
            "program_id": 4949,
            "program_num": 4949,
            "nb_streams": 0,
            "pmt_pid": 149,
            "pcr_pid": 0,
            "streams": [

            ]
        },
        {
            "program_id": 4950,
            "program_num": 4950,
            "nb_streams": 0,
            "pmt_pid": 150,
            "pcr_pid": 0,
            "streams": [

            ]
        },
        {
            "program_id": 4951,
            "program_num": 4951,
            "nb_streams": 0,
            "pmt_pid": 151,
            "pcr_pid": 0,
            "streams": [

            ]
        }
    ],
    "streams": [
        {
            "index": 0,
            "codec_name": "epg",
            "codec_long_name": "Electronic Program Guide",
            "codec_type": "data",
            "codec_tag_string": "[0][0][0][0]",
            "codec_tag": "0x0000",
            "ts_id": "1007",
            "ts_packetsize": "188",
            "id": "0x12",
            "r_frame_rate": "0/0",
            "avg_frame_rate": "0/0",
            "time_base": "1/90000",
            "start_pts": 3255091192,
            "start_time": "36167.679911",
            "duration_ts": 10711800,
            "duration": "119.020000",
            "disposition": {
                "default": 0,
                "dub": 0,
                "original": 0,
                "comment": 0,
                "lyrics": 0,
                "karaoke": 0,
                "forced": 0,
                "hearing_impaired": 0,
                "visual_impaired": 0,
                "clean_effects": 0,
                "attached_pic": 0,
                "timed_thumbnails": 0,
                "non_diegetic": 0,
                "captions": 0,
                "descriptions": 0,
                "metadata": 0,
                "dependent": 0,
                "still_image": 0,
                "multilayer": 0
            }
        },
        {
            "index": 1,
            "codec_name": "h264",
            "codec_long_name": "H.264 / AVC / MPEG-4 AVC / MPEG-4 part 10",
            "profile": "High",
            "codec_type": "video",
            "codec_tag_string": "[27][0][0][0]",
            "codec_tag": "0x001b",
            "mime_codec_string": "avc1.640028",
            "width": 1280,
            "height": 720,
            "coded_width": 1280,
            "coded_height": 720,
            "has_b_frames": 2,
            "sample_aspect_ratio": "1:1",
            "display_aspect_ratio": "16:9",
            "pix_fmt": "yuv420p",
            "level": 40,
            "chroma_location": "left",
            "field_order": "progressive",
            "is_avc": "false",
            "nal_length_size": "0",
            "ts_id": "1007",
            "ts_packetsize": "188",
            "id": "0x780",
            "r_frame_rate": "50/1",
            "avg_frame_rate": "50/1",
            "time_base": "1/90000",
            "start_pts": 3255206392,
            "start_time": "36168.959911",
            "duration_ts": 10596600,
            "duration": "117.740000",
            "bits_per_raw_sample": "8",
            "extradata_size": 142,
            "disposition": {
                "default": 0,
                "dub": 0,
                "original": 0,
                "comment": 0,
                "lyrics": 0,
                "karaoke": 0,
                "forced": 0,
                "hearing_impaired": 0,
                "visual_impaired": 0,
                "clean_effects": 0,
                "attached_pic": 0,
                "timed_thumbnails": 0,
                "non_diegetic": 0,
                "captions": 0,
                "descriptions": 0,
                "metadata": 0,
                "dependent": 0,
                "still_image": 0,
                "multilayer": 0
            }
        },
        {
            "index": 2,
            "codec_name": "ac3",
            "codec_long_name": "ATSC A/52A (AC-3)",
            "codec_type": "audio",
            "codec_tag_string": "[6][0][0][0]",
            "codec_tag": "0x0006",
            "mime_codec_string": "ac-3",
            "sample_fmt": "fltp",
            "sample_rate": "48000",
            "channels": 6,
            "channel_layout": "5.1(side)",
            "bits_per_sample": 0,
            "initial_padding": 0,
            "dmix_mode": "0",
            "ltrt_cmixlev": "0.000000",
            "ltrt_surmixlev": "0.000000",
            "loro_cmixlev": "0.000000",
            "loro_surmixlev": "0.000000",
            "ts_id": "1007",
            "ts_packetsize": "188",
            "id": "0x781",
            "r_frame_rate": "0/0",
            "avg_frame_rate": "0/0",
            "time_base": "1/90000",
            "start_pts": 3255101901,
            "start_time": "36167.798900",
            "duration_ts": 10578240,
            "duration": "117.536000",
            "bit_rate": "448000",
            "disposition": {
                "default": 0,
                "dub": 0,
                "original": 0,
                "comment": 0,
                "lyrics": 0,
                "karaoke": 0,
                "forced": 0,
                "hearing_impaired": 0,
                "visual_impaired": 0,
                "clean_effects": 1,
                "attached_pic": 0,
                "timed_thumbnails": 0,
                "non_diegetic": 0,
                "captions": 0,
                "descriptions": 0,
                "metadata": 0,
                "dependent": 0,
                "still_image": 0,
                "multilayer": 0
            },
            "tags": {
                "language": "deu"
            }
        },
        {
            "index": 3,
            "codec_name": "mp2",
            "codec_long_name": "MP2 (MPEG audio layer 2)",
            "codec_type": "audio",
            "codec_tag_string": "[3][0][0][0]",
            "codec_tag": "0x0003",
            "mime_codec_string": "mp4a.40.33",
            "sample_fmt": "fltp",
            "sample_rate": "48000",
            "channels": 2,
            "channel_layout": "stereo",
            "bits_per_sample": 0,
            "initial_padding": 0,
            "ts_id": "1007",
            "ts_packetsize": "188",
            "id": "0x782",
            "r_frame_rate": "0/0",
            "avg_frame_rate": "0/0",
            "time_base": "1/90000",
            "start_pts": 3255095538,
            "start_time": "36167.728200",
            "duration_ts": 10594800,
            "duration": "117.720000",
            "bit_rate": "160000",
            "disposition": {
                "default": 0,
                "dub": 0,
                "original": 0,
                "comment": 0,
                "lyrics": 0,
                "karaoke": 0,
                "forced": 0,
                "hearing_impaired": 0,
                "visual_impaired": 0,
                "clean_effects": 1,
                "attached_pic": 0,
                "timed_thumbnails": 0,
                "non_diegetic": 0,
                "captions": 0,
                "descriptions": 0,
                "metadata": 0,
                "dependent": 0,
                "still_image": 0,
                "multilayer": 0
            },
            "tags": {
                "language": "mis"
            }
        },
        {
            "index": 4,
            "codec_name": "dvb_teletext",
            "codec_long_name": "DVB teletext",
            "codec_type": "subtitle",
            "codec_tag_string": "[6][0][0][0]",
            "codec_tag": "0x0006",
            "ts_id": "1007",
            "ts_packetsize": "188",
            "id": "0x785",
            "r_frame_rate": "0/0",
            "avg_frame_rate": "0/0",
            "time_base": "1/90000",
            "start_pts": 3255091192,
            "start_time": "36167.679911",
            "duration_ts": 10594800,
            "duration": "117.720000",
            "extradata_size": 4,
            "disposition": {
                "default": 0,
                "dub": 0,
                "original": 0,
                "comment": 0,
                "lyrics": 0,
                "karaoke": 0,
                "forced": 0,
                "hearing_impaired": 0,
                "visual_impaired": 0,
                "clean_effects": 0,
                "attached_pic": 0,
                "timed_thumbnails": 0,
                "non_diegetic": 0,
                "captions": 0,
                "descriptions": 0,
                "metadata": 0,
                "dependent": 0,
                "still_image": 0,
                "multilayer": 0
            },
            "tags": {
                "language": "deu,deu"
            }
        },
        {
            "index": 5,
            "codec_type": "data",
            "codec_tag_string": "[0][0][0][0]",
            "codec_tag": "0x0000",
            "ts_id": "1007",
            "ts_packetsize": "188",
            "id": "0x1c8e",
            "r_frame_rate": "0/0",
            "avg_frame_rate": "0/0",
            "time_base": "1/90000",
            "start_pts": 3255091192,
            "start_time": "36167.679911",
            "duration_ts": 10711800,
            "duration": "119.020000",
            "disposition": {
                "default": 0,
                "dub": 0,
                "original": 0,
                "comment": 0,
                "lyrics": 0,
                "karaoke": 0,
                "forced": 0,
                "hearing_impaired": 0,
                "visual_impaired": 0,
                "clean_effects": 0,
                "attached_pic": 0,
                "timed_thumbnails": 0,
                "non_diegetic": 0,
                "captions": 0,
                "descriptions": 0,
                "metadata": 0,
                "dependent": 0,
                "still_image": 0,
                "multilayer": 0
            }
        },
        {
            "index": 6,
            "codec_tag_string": "[11][0][0][0]",
            "codec_tag": "0x000b",
            "ts_id": "1007",
            "ts_packetsize": "188",
            "id": "0x1c8f",
            "r_frame_rate": "0/0",
            "avg_frame_rate": "0/0",
            "time_base": "1/90000",
            "start_pts": 3255091192,
            "start_time": "36167.679911",
            "duration_ts": 10711800,
            "duration": "119.020000",
            "disposition": {
                "default": 0,
                "dub": 0,
                "original": 0,
                "comment": 0,
                "lyrics": 0,
                "karaoke": 0,
                "forced": 0,
                "hearing_impaired": 0,
                "visual_impaired": 0,
                "clean_effects": 0,
                "attached_pic": 0,
                "timed_thumbnails": 0,
                "non_diegetic": 0,
                "captions": 0,
                "descriptions": 0,
                "metadata": 0,
                "dependent": 0,
                "still_image": 0,
                "multilayer": 0
            }
        },
        {
            "index": 7,
            "codec_tag_string": "[12][0][0][0]",
            "codec_tag": "0x000c",
            "ts_id": "1007",
            "ts_packetsize": "188",
            "id": "0x1c90",
            "r_frame_rate": "0/0",
            "avg_frame_rate": "0/0",
            "time_base": "1/90000",
            "start_pts": 3255091192,
            "start_time": "36167.679911",
            "duration_ts": 10711800,
            "duration": "119.020000",
            "disposition": {
                "default": 0,
                "dub": 0,
                "original": 0,
                "comment": 0,
                "lyrics": 0,
                "karaoke": 0,
                "forced": 0,
                "hearing_impaired": 0,
                "visual_impaired": 0,
                "clean_effects": 0,
                "attached_pic": 0,
                "timed_thumbnails": 0,
                "non_diegetic": 0,
                "captions": 0,
                "descriptions": 0,
                "metadata": 0,
                "dependent": 0,
                "still_image": 0,
                "multilayer": 0
            }
        },
        {
            "index": 8,
            "codec_tag_string": "[5][0][0][0]",
            "codec_tag": "0x0005",
            "ts_id": "1007",
            "ts_packetsize": "188",
            "id": "0x1c8e",
            "r_frame_rate": "0/0",
            "avg_frame_rate": "0/0",
            "time_base": "1/90000",
            "start_pts": 3255091192,
            "start_time": "36167.679911",
            "duration_ts": 10711800,
            "duration": "119.020000",
            "disposition": {
                "default": 0,
                "dub": 0,
                "original": 0,
                "comment": 0,
                "lyrics": 0,
                "karaoke": 0,
                "forced": 0,
                "hearing_impaired": 0,
                "visual_impaired": 0,
                "clean_effects": 0,
                "attached_pic": 0,
                "timed_thumbnails": 0,
                "non_diegetic": 0,
                "captions": 0,
                "descriptions": 0,
                "metadata": 0,
                "dependent": 0,
                "still_image": 0,
                "multilayer": 0
            }
        }
    ],
    "format": {
        "filename": "input.ts",
        "nb_streams": 9,
        "nb_programs": 21,
        "nb_stream_groups": 0,
        "format_name": "mpegts",
        "format_long_name": "MPEG-TS (MPEG-2 Transport Stream)",
        "start_time": "36167.679911",
        "duration": "119.020000",
        "size": "165945344",
        "bit_rate": "11154114",
        "probe_score": 50
    }
}
